{
  "accessors": [
    {
      "bufferView": 1,
      "componentType": 5126,
      "count": 65532,
      "max": [
        2.7080135345458984,
        3.7570741176605225,
        0.3596392273902893
      ],
      "min": [
        -0.3937452733516693,
        0.6553153395652771,
        -0.3596391975879669
      ],
      "type": "VEC3"
    },
    {
      "bufferView": 1,
      "byteOffset": 786384,
      "componentType": 5126,
      "count": 65532,
      "max": [
        0.999985933303833,
        0.9999381303787231,
        0.9999527335166931
      ],
      "min": [
        -0.999985933303833,
        -0.9999858736991882,
        -0.9999343156814575
      ],
      "type": "VEC3"
    },
    {
      "bufferView": 0,
      "componentType": 5125,
      "count": 371415,
      "type": "SCALAR"
    },
    {
      "bufferView": 1,
      "byteOffset": 1572768,
      "componentType": 5126,
      "count": 23064,
      "max": [
        2.7080135345458984,
        3.756920576095581,
        0.3596392273902893
      ],
      "min": [
        -0.39183613657951355,
        0.6559327244758606,
        -0.35963916778564453
      ],
      "type": "VEC3"
    },
    {
      "bufferView": 1,
      "byteOffset": 1849536,
      "componentType": 5126,
      "count": 23064,
      "max": [
        0.9999319314956665,
        0.9999858736991882,
        0.9999526739120483
      ],
      "min": [
        -0.9999382495880127,
        -0.9999382495880127,
        -0.9999343156814575
      ],
      "type": "VEC3"
    },
    {
      "bufferView": 0,
      "byteOffset": 1485660,
      "componentType": 5125,
      "count": 107856,
      "type": "SCALAR"
    }
  ],
  "asset": {
    "extras": {
      "author": "Parker (https://sketchfab.com/axelviii)",
      "license": "CC-BY-4.0 (http://creativecommons.org/licenses/by/4.0/)",
      "source": "https://sketchfab.com/3d-models/voronoi-bracelet1-babb7ca3a05746c0b831d05c6c4602a0",
      "title": "Voronoi Bracelet(1)"
    },
    "generator": "Sketchfab-12.66.0",
    "version": "2.0"
  },
  "bufferViews": [
    {
      "buffer": 0,
      "byteLength": 1917084,
      "name": "floatBufferViews",
      "target": 34963
    },
    {
      "buffer": 0,
      "byteLength": 2126304,
      "byteOffset": 1917084,
      "byteStride": 12,
      "name": "floatBufferViews",
      "target": 34962
    }
  ],
  "buffers": [
    {
      "byteLength": 4043388,
      "uri": "binfile.bin"
    }
  ],
  "materials": [
    {
      "doubleSided": true,
      "name": "Scene_-_Root",
      "pbrMetallicRoughness": {
        "baseColorFactor": [
          0.5,
          0.5,
          0.5,
          1.0
        ],
        "metallicFactor": 0.0,
        "roughnessFactor": 0.6
      }
    }
  ],
  "meshes": [
    {
      "name": "Object_0",
      "primitives": [
        {
          "attributes": {
            "NORMAL": 1,
            "POSITION": 0
          },
          "indices": 2,
          "material": 0,
          "mode": 4
        }
      ]
    },
    {
      "name": "Object_1",
      "primitives": [
        {
          "attributes": {
            "NORMAL": 4,
            "POSITION": 3
          },
          "indices": 5,
          "material": 0,
          "mode": 4
        }
      ]
    }
  ],
  "nodes": [
    {
      "children": [
        1
      ],
      "matrix": [
        1.0,
        0.0,
        0.0,
        0.0,
        0.0,
        2.220446049250313e-16,
        -1.0,
        0.0,
        0.0,
        1.0,
        2.220446049250313e-16,
        0.0,
        0.0,
        0.0,
        0.0,
        1.0
      ],
      "name": "Sketchfab_model"
    },
    {
      "children": [
        2,
        3
      ],
      "name": "VoronoiBracelet(1).stl.cleaner"
    },
    {
      "mesh": 0,
      "name": "Object_2"
    },
    {
      "mesh": 1,
      "name": "Object_3"
    }
  ],
  "scene": 0,
  "scenes": [
    {
      "name": "Sketchfab_Scene",
      "nodes": [
        0
      ]
    }
  ]
}
